<svg id="Capa_1" data-name="Capa 1" xmlns="http://www.w3.org/2000/svg" viewBox="0 0 1304.7 2569.7"><rect x="67.5" y="136.2" width="1185.6" height="192.52" style="fill:#1a6b5b"/><path d="M67.5,2292.1H1253.1a0,0,0,0,1,0,0v107.1a106.5,106.5,0,0,1-106.5,106.5H174A106.5,106.5,0,0,1,67.5,2399.2V2292.1A0,0,0,0,1,67.5,2292.1Z" style="fill:#3d3d3d"/><path d="M159.8,55.7h989.7a92.4,92.4,0,0,1,92.4,92.4v4.7a0,0,0,0,1,0,0H67.5a0,0,0,0,1,0,0v-4.7a92.4,92.4,0,0,1,92.4-92.4Z" style="fill:#707070"/><polygon points="470.4 32.9 503.7 32.9 495.2 152.7 470.4 149.9 470.4 32.9" style="fill:#fff"/><path d="M854.1,241.5l-260.9,1.1L566,245.4l-34.5,6.9-33.4,17.2-35.5,29.6s-48.5,47.8-53.9,136.1V2558s-2.6,108.8,75.7,157.1c0,0,58.2,49.9,144.4,39l861.4.4s158.1-3.7,177.1-181.8V430.8s-4.9-136.6-121.1-175.3L1530,250l-38-7.5-617.8-1-3.1,119.9,424.7-.6,20.3-6.7s39.2-17.1,49.9-79.4l104.7-1.1s97.6-4.9,142.9,92.1c0,0,10.8,25.8,12.3,43.2l1.2,2146.8s5.8,114.2-126.6,143.2H600.2s-117,7.7-148.5-128l-1-2145.7s-10-126.4,135.5-148.8l121.2-.7s9.9,49.7,37.6,62.6c0,0,17,29.8,119.2,23.1l1.1-119.9Z" transform="translate(-383.7 -208.6)" style="fill:#fff"/><path d="M385.7,419.4a233.5,233.5,0,0,1,20.2-95.7c23.4-51.8,73.3-111.3,179.6-113.1h901.1s145.1-3.7,189.3,137.9a236.4,236.4,0,0,1,10.5,70.4V2582.8s-.6,132.7-120.6,179.8a202.9,202.9,0,0,1-74.2,13.7H590.5a219,219,0,0,1-109.9-29.1c-46.9-27.2-95.7-79.2-94.9-177.6Z" transform="translate(-383.7 -208.6)" style="fill:none;stroke:#fff;stroke-miterlimit:10;stroke-width:4px"/><path d="M408.7,445.9a230.9,230.9,0,0,1,19.6-93.7c22.6-50.7,70.9-109,173.7-110.7h872.4s140.5-3.7,183.3,135a236.5,236.5,0,0,1,10.1,68.9V2564.6s-.6,130-116.8,176.1a193.4,193.4,0,0,1-71.8,13.4H606.9a210.5,210.5,0,0,1-106.4-28.5c-45.4-26.7-92.6-77.6-91.8-173.9Z" transform="translate(-383.7 -208.6)" style="fill:none;stroke:#fff;stroke-miterlimit:10;stroke-width:3.8946764839159274px"/><path d="M1368.2,273.6h102.5a158.6,158.6,0,0,1,64.5,13.3,152.1,152.1,0,0,1,57.1,43.9c23.1,28.6,35.2,64.4,35.2,101.1V2545.6c-3.1,137.8-127,153.3-127,153.3H600.2C455.4,2688.8,450,2557.2,450,2557.2l.7-2132a164.2,164.2,0,0,1,4-36.3A142,142,0,0,1,500.1,313c27.8-24.3,63.9-37.3,100.9-37.3H707.4a3,3,0,0,1,3.1,2.6c.2.9.3,1.8.5,2.7,9,46.8,50.5,80.4,98.2,80.4h324.9l161.7-.6s56.9-5.5,69.7-84.9A2.7,2.7,0,0,1,1368.2,273.6Z" transform="translate(-383.7 -208.6)" style="fill:none;stroke:#fff;stroke-miterlimit:10;stroke-width:4px"/><rect x="553.2" y="84.1" width="203.9" height="14.45" rx="7.2" style="fill:#9e9e9e"/><circle cx="841.9" cy="92.7" r="18.8" style="fill:#9e9e9e"/><circle cx="841.9" cy="92.7" r="12.3" style="fill:#9e9e9e"/><rect x="564.4" y="2362.6" width="203.9" height="48" rx="24" style="fill:#fff"/><path d="M1425.1,2574.8h-26.5l11-11.1a3.8,3.8,0,0,0,.1-5.3h-.1a3.9,3.9,0,0,0-5.3,0l-17.4,17.6a3.8,3.8,0,0,0-.9,1.3,3.7,3.7,0,0,0,0,2.9,4.7,4.7,0,0,0,.9,1.2l17.5,17.7a3.9,3.9,0,0,0,2.7,1.1,3.7,3.7,0,0,0,3.8-3.7,4.1,4.1,0,0,0-1.1-2.8l-11.1-11.2h26.6a11.4,11.4,0,0,1,11.4,11.4v35.6a3.8,3.8,0,0,0,7.6,0v-35.6a19,19,0,0,0-19-19Z" transform="translate(-383.7 -208.6)" style="fill:#fff"/><rect x="262.6" y="2353.8" width="83.1" height="83.08" rx="11.8" style="fill:#fff"/><rect x="278.8" y="2336.3" width="83.1" height="83.08" rx="11.8" style="fill:none;stroke:#fff;stroke-miterlimit:10;stroke-width:6px"/><rect x="82.7" y="2163.1" width="1006.9" height="113.81" rx="56.9" style="fill:#fff"/><path d="M521.3,2424.2a3.5,3.5,0,0,0,0-6.9,3.5,3.5,0,1,0,0,6.9Zm10.4-31.2a34.8,34.8,0,1,0,34.7,34.7A34.7,34.7,0,0,0,531.7,2393Zm0,62.5a27.8,27.8,0,1,1,27.8-27.8A27.7,27.7,0,0,1,531.7,2455.5Zm10.4-24.3H521.3a3.4,3.4,0,0,0-3.5,3.5,13.9,13.9,0,1,0,27.8,0A3.5,3.5,0,0,0,542.1,2431.2Zm-10.4,10.4a6.8,6.8,0,0,1-6-3.5h12A6.8,6.8,0,0,1,531.7,2441.6Zm10.4-24.3a3.5,3.5,0,1,0,3.5,3.5A3.5,3.5,0,0,0,542.1,2417.3Z" transform="translate(-383.7 -208.6)" style="fill:#aaa"/><text transform="translate(208.8 2233)" style="font-size:38.27411651611328px;fill:#aaa;font-family:Poppins-SemiBold, Poppins;font-weight:600">Mensaje</text><path d="M1434.5,2414.4h-3.6l-.9-2.8a8.4,8.4,0,0,0-7.9-5.6h-14.2a8.3,8.3,0,0,0-7.9,5.7l-.9,2.8h-3.6a8.5,8.5,0,0,0-8.4,8.4v22.3a8.4,8.4,0,0,0,8.4,8.3h39a8.3,8.3,0,0,0,8.3-8.3v-22.3a8.4,8.4,0,0,0-8.2-8.5Zm2.8,30.6a2.8,2.8,0,0,1-2.8,2.8h-39a2.8,2.8,0,0,1-2.8-2.8v-22.3a2.8,2.8,0,0,1,2.8-2.7h5.6a2.8,2.8,0,0,0,2.7-1.9l1.6-4.6a2.7,2.7,0,0,1,2.6-1.9h14.3a2.8,2.8,0,0,1,2.6,1.9l1.5,4.6a3.1,3.1,0,0,0,2.5,1.9h5.6a2.8,2.8,0,0,1,2.8,2.7Zm-22.3-25a11.1,11.1,0,1,0,11.1,11.1A11.1,11.1,0,0,0,1415,2420Zm0,16.7a5.6,5.6,0,1,1,5.6-5.6A5.6,5.6,0,0,1,1415,2436.7Z" transform="translate(-383.7 -208.6)" style="fill:#aaa"/><path d="M1314.5,2410.4l20.8,20.7a14.2,14.2,0,0,1-20.1,20.1l-26.8-26.8a8.5,8.5,0,0,1,0-11.8,8.3,8.3,0,0,1,11.8,0l23.1,23.1a2.5,2.5,0,0,1-3.5,3.7l-17.1-17.2a3.4,3.4,0,0,0-4.8,4.8l17.2,17.2a9.2,9.2,0,0,0,13,0h.1a9.7,9.7,0,0,0,0-13.1l-23.1-23a15.1,15.1,0,0,0-21.3,21.3l26.8,26.7a20.9,20.9,0,0,0,29.3-29.7l-20.7-20.7a3.3,3.3,0,0,0-4.7,4.7Z" transform="translate(-383.7 -208.6)" style="fill:#aaa"/><circle cx="1173.2" cy="2220" r="60.4" style="fill:#fff"/><path d="M1556.9,2438.8a13.6,13.6,0,0,0,13.6-13.5v-20.4a13.6,13.6,0,0,0-27.2,0v20.4A13.6,13.6,0,0,0,1556.9,2438.8Zm-6.8-33.9a6.8,6.8,0,1,1,13.6,0v20.4a6.8,6.8,0,0,1-13.6,0Zm33.9,20.4a3.4,3.4,0,0,0-3.4-3.4,3.4,3.4,0,0,0-3.4,3.4,20.3,20.3,0,1,1-40.6,0,3.4,3.4,0,1,0-6.8,0,27.1,27.1,0,0,0,23.7,26.8v7h-6.8a3.5,3.5,0,0,0-3.4,3.4,3.4,3.4,0,0,0,3.4,3.4h20.4a3.4,3.4,0,0,0,3.4-3.4,3.5,3.5,0,0,0-3.4-3.4h-6.8v-7A27.1,27.1,0,0,0,1584,2425.3Z" transform="translate(-383.7 -208.6)" style="fill:#aaa"/><circle cx="225.2" cy="239.5" r="67.9" style="fill:#fff"/><path d="M470.6,455.5a7.5,7.5,0,0,1,.7-1.2l17.1-17a3.4,3.4,0,0,1,4.9,0,3.4,3.4,0,0,1,0,4.8L482,453.4h25.9a3.4,3.4,0,1,1,0,6.8H482l11.3,11.2a3.6,3.6,0,0,1,0,4.9h0a3.6,3.6,0,0,1-4.9,0h0l-17.1-17.1a4.1,4.1,0,0,1-.7-1.1A3.9,3.9,0,0,1,470.6,455.5Z" transform="translate(-383.7 -208.6)" style="fill:#fff"/><text transform="translate(169.4 254.5) rotate(-15.6)" style="font-size:35.60318374633789px;fill:#b3c7ff;font-family:Poppins-Black, Poppins;font-weight:800">FIBER</text><text transform="translate(200.3 277.4) rotate(-15.6)" style="font-size:35.60318374633789px;fill:#b3c7ff;font-family:Poppins-Black, Poppins;font-weight:800">PLUS</text><text transform="translate(314 239.5)" style="font-size:40.89808654785156px;fill:#fff;font-family:Poppins-Bold, Poppins;font-weight:700">+54 9 11 2401-3978</text><text transform="translate(320.6 285.5)" style="font-size:35.217376708984375px;fill:#afafaf;font-family:Poppins-Bold, Poppins;font-weight:700">En línea</text><path d="M1504,448.6a5.8,5.8,0,0,1-1.4-.3,14,14,0,0,1-2.9-.9,4.6,4.6,0,0,0-5.5,2.2l-.5,1a26.8,26.8,0,0,1-10.2-10.2l.9-.6a4.5,4.5,0,0,0,2.2-5.5l-.9-2.9a7.7,7.7,0,0,1-.2-1.5,6.7,6.7,0,0,0-6.6-5.5h-6.6a6.6,6.6,0,0,0-6.7,6.6,3.8,3.8,0,0,0,.1,1,41.9,41.9,0,0,0,36.3,36.2h.9a6.6,6.6,0,0,0,4.4-1.7,6.8,6.8,0,0,0,2.2-4.9V455A6.6,6.6,0,0,0,1504,448.6Zm1.1,13.2a2,2,0,0,1-.7,1.6,2.1,2.1,0,0,1-1.8.6,37.5,37.5,0,0,1-32.4-32.6,2.1,2.1,0,0,1,.6-1.8,2.4,2.4,0,0,1,1.6-.7h6.6a2.2,2.2,0,0,1,2.2,1.7l.3,1.8a19.3,19.3,0,0,0,1.1,3.4l-3.1,1.5a2.2,2.2,0,0,0-1.1,2.9h0a32,32,0,0,0,15.4,15.4,2.5,2.5,0,0,0,1.7,0,2,2,0,0,0,1.2-1.2l1.4-3,3.5,1,1.8.3a2.3,2.3,0,0,1,1.7,2.2Z" transform="translate(-383.7 -208.6)" style="fill:#fff"/><path d="M1413.5,433.2a2.6,2.6,0,0,0-2.7,0l-9.6,4.7a8,8,0,0,0-8.1-7.8h-24.4a8.1,8.1,0,0,0-8.1,8.1v16.2a8.2,8.2,0,0,0,8.1,8.2h24.4a8.1,8.1,0,0,0,8.1-7.9l9.7,4.9,1.2.3a2.4,2.4,0,0,0,1.4-.5,2.5,2.5,0,0,0,1.3-2.3V435.5A2.6,2.6,0,0,0,1413.5,433.2Zm-17.7,21.2a2.7,2.7,0,0,1-2.7,2.7h-24.4a2.7,2.7,0,0,1-2.7-2.7V438.2a2.7,2.7,0,0,1,2.7-2.7h24.4a2.7,2.7,0,0,1,2.7,2.7Zm13.6-1.6-8.2-4.1v-4.8l8.2-4Z" transform="translate(-383.7 -208.6)" style="fill:#fff"/><circle cx="1194.3" cy="220.8" r="4.6" style="fill:#fff"/><circle cx="1194.3" cy="238.3" r="4.6" style="fill:#fff"/><circle cx="1194.3" cy="254.5" r="4.6" style="fill:#fff"/></svg>